<mxfile host="app.diagrams.net" modified="2024-07-01T05:36:01.596Z" agent="Mozilla/5.0 (Windows NT 10.0; Win64; x64) AppleWebKit/537.36 (KHTML, like Gecko) Chrome/126.0.0.0 Safari/537.36 Edg/126.0.0.0" etag="V-rX9jyRk9_OLtWuQ53D" version="24.4.8" type="device">
  <diagram name="第 1 页" id="-Q4Otza4J-dVJTXRqkHD">
    <mxGraphModel dx="1911" dy="1122" grid="0" gridSize="10" guides="1" tooltips="1" connect="1" arrows="1" fold="1" page="0" pageScale="1" pageWidth="827" pageHeight="1169" math="0" shadow="0">
      <root>
        <mxCell id="0" />
        <mxCell id="1" parent="0" />
        <mxCell id="AHo4vM3Yk15O1mO4VEVY-20" value="" style="rounded=1;whiteSpace=wrap;html=1;fontFamily=Architects Daughter;fontSource=https%3A%2F%2Ffonts.googleapis.com%2Fcss%3Ffamily%3DArchitects%2BDaughter;fillColor=#b1ddf0;opacity=30;strokeColor=#10739e;strokeWidth=2;" vertex="1" parent="1">
          <mxGeometry x="-112.5" y="-163" width="609" height="432" as="geometry" />
        </mxCell>
        <mxCell id="AHo4vM3Yk15O1mO4VEVY-1" value="&lt;font style=&quot;font-size: 30px;&quot; face=&quot;Lucida Console&quot;&gt;RISC-V Core&lt;/font&gt;" style="rounded=1;whiteSpace=wrap;html=1;fontFamily=Architects Daughter;fontSource=https%3A%2F%2Ffonts.googleapis.com%2Fcss%3Ffamily%3DArchitects%2BDaughter;fillColor=#ffe6cc;strokeColor=#d79b00;shadow=1;glass=0;gradientColor=none;strokeWidth=3;align=center;" vertex="1" parent="1">
          <mxGeometry x="-64" y="-93" width="512" height="160" as="geometry" />
        </mxCell>
        <mxCell id="AHo4vM3Yk15O1mO4VEVY-2" value="&lt;font face=&quot;Lucida Console&quot; style=&quot;font-size: 22px;&quot;&gt;Bus&lt;/font&gt;" style="rounded=1;whiteSpace=wrap;html=1;fontFamily=Architects Daughter;fontSource=https%3A%2F%2Ffonts.googleapis.com%2Fcss%3Ffamily%3DArchitects%2BDaughter;fillColor=#0066CC;fontColor=#ffffff;strokeColor=#3333FF;strokeWidth=2;" vertex="1" parent="1">
          <mxGeometry x="-64" y="106" width="512" height="47" as="geometry" />
        </mxCell>
        <mxCell id="AHo4vM3Yk15O1mO4VEVY-4" value="&lt;font face=&quot;Lucida Console&quot; style=&quot;font-size: 20px;&quot;&gt;ROM&lt;/font&gt;" style="rounded=1;whiteSpace=wrap;html=1;fontFamily=Architects Daughter;fontSource=https%3A%2F%2Ffonts.googleapis.com%2Fcss%3Ffamily%3DArchitects%2BDaughter;fillColor=#f8cecc;strokeColor=#b85450;strokeWidth=2;" vertex="1" parent="1">
          <mxGeometry x="-64" y="192" width="86" height="52" as="geometry" />
        </mxCell>
        <mxCell id="AHo4vM3Yk15O1mO4VEVY-5" value="&lt;font face=&quot;Lucida Console&quot; style=&quot;font-size: 20px;&quot;&gt;RAM&lt;/font&gt;" style="rounded=1;whiteSpace=wrap;html=1;fontFamily=Architects Daughter;fontSource=https%3A%2F%2Ffonts.googleapis.com%2Fcss%3Ffamily%3DArchitects%2BDaughter;fillColor=#f8cecc;strokeColor=#b85450;strokeWidth=2;" vertex="1" parent="1">
          <mxGeometry x="44" y="192" width="86" height="52" as="geometry" />
        </mxCell>
        <mxCell id="AHo4vM3Yk15O1mO4VEVY-6" value="&lt;font style=&quot;font-size: 20px;&quot; face=&quot;Lucida Console&quot;&gt;Timer&lt;/font&gt;" style="rounded=1;whiteSpace=wrap;html=1;fontFamily=Architects Daughter;fontSource=https%3A%2F%2Ffonts.googleapis.com%2Fcss%3Ffamily%3DArchitects%2BDaughter;fillColor=#e1d5e7;strokeColor=#9673a6;strokeWidth=2;" vertex="1" parent="1">
          <mxGeometry x="151" y="192" width="86" height="52" as="geometry" />
        </mxCell>
        <mxCell id="AHo4vM3Yk15O1mO4VEVY-7" value="&lt;font face=&quot;Lucida Console&quot; style=&quot;font-size: 20px;&quot;&gt;GPIO&lt;/font&gt;" style="rounded=1;whiteSpace=wrap;html=1;fontFamily=Architects Daughter;fontSource=https%3A%2F%2Ffonts.googleapis.com%2Fcss%3Ffamily%3DArchitects%2BDaughter;fillColor=#d5e8d4;strokeColor=#82b366;strokeWidth=2;" vertex="1" parent="1">
          <mxGeometry x="256" y="192" width="86" height="52" as="geometry" />
        </mxCell>
        <mxCell id="AHo4vM3Yk15O1mO4VEVY-8" value="&lt;font face=&quot;Lucida Console&quot; style=&quot;font-size: 20px;&quot;&gt;UART&lt;/font&gt;" style="rounded=1;whiteSpace=wrap;html=1;fontFamily=Architects Daughter;fontSource=https%3A%2F%2Ffonts.googleapis.com%2Fcss%3Ffamily%3DArchitects%2BDaughter;fillColor=#d5e8d4;strokeColor=#82b366;strokeWidth=2;" vertex="1" parent="1">
          <mxGeometry x="362" y="192" width="86" height="52" as="geometry" />
        </mxCell>
        <mxCell id="AHo4vM3Yk15O1mO4VEVY-11" style="edgeStyle=none;curved=1;rounded=0;orthogonalLoop=1;jettySize=auto;html=1;exitX=0.5;exitY=0;exitDx=0;exitDy=0;fontFamily=Architects Daughter;fontSource=https%3A%2F%2Ffonts.googleapis.com%2Fcss%3Ffamily%3DArchitects%2BDaughter;fontSize=16;endArrow=classic;sourcePerimeterSpacing=8;targetPerimeterSpacing=8;endFill=1;startArrow=classic;startFill=1;" edge="1" parent="1">
          <mxGeometry relative="1" as="geometry">
            <mxPoint x="-21.340000000000003" y="192" as="sourcePoint" />
            <mxPoint x="-21.340000000000003" y="153" as="targetPoint" />
          </mxGeometry>
        </mxCell>
        <mxCell id="AHo4vM3Yk15O1mO4VEVY-15" style="edgeStyle=none;curved=1;rounded=0;orthogonalLoop=1;jettySize=auto;html=1;exitX=0.5;exitY=0;exitDx=0;exitDy=0;fontFamily=Architects Daughter;fontSource=https%3A%2F%2Ffonts.googleapis.com%2Fcss%3Ffamily%3DArchitects%2BDaughter;fontSize=16;endArrow=classic;sourcePerimeterSpacing=8;targetPerimeterSpacing=8;endFill=1;startArrow=classic;startFill=1;" edge="1" parent="1">
          <mxGeometry relative="1" as="geometry">
            <mxPoint x="86.8" y="192" as="sourcePoint" />
            <mxPoint x="86.8" y="153" as="targetPoint" />
          </mxGeometry>
        </mxCell>
        <mxCell id="AHo4vM3Yk15O1mO4VEVY-16" style="edgeStyle=none;curved=1;rounded=0;orthogonalLoop=1;jettySize=auto;html=1;exitX=0.5;exitY=0;exitDx=0;exitDy=0;fontFamily=Architects Daughter;fontSource=https%3A%2F%2Ffonts.googleapis.com%2Fcss%3Ffamily%3DArchitects%2BDaughter;fontSize=16;endArrow=classic;sourcePerimeterSpacing=8;targetPerimeterSpacing=8;endFill=1;startArrow=classic;startFill=1;" edge="1" parent="1">
          <mxGeometry relative="1" as="geometry">
            <mxPoint x="191.8" y="192" as="sourcePoint" />
            <mxPoint x="191.8" y="153" as="targetPoint" />
          </mxGeometry>
        </mxCell>
        <mxCell id="AHo4vM3Yk15O1mO4VEVY-17" style="edgeStyle=none;curved=1;rounded=0;orthogonalLoop=1;jettySize=auto;html=1;exitX=0.5;exitY=0;exitDx=0;exitDy=0;fontFamily=Architects Daughter;fontSource=https%3A%2F%2Ffonts.googleapis.com%2Fcss%3Ffamily%3DArchitects%2BDaughter;fontSize=16;endArrow=classic;sourcePerimeterSpacing=8;targetPerimeterSpacing=8;endFill=1;startArrow=classic;startFill=1;" edge="1" parent="1">
          <mxGeometry relative="1" as="geometry">
            <mxPoint x="298.8" y="192" as="sourcePoint" />
            <mxPoint x="298.8" y="153" as="targetPoint" />
          </mxGeometry>
        </mxCell>
        <mxCell id="AHo4vM3Yk15O1mO4VEVY-18" style="edgeStyle=none;curved=1;rounded=0;orthogonalLoop=1;jettySize=auto;html=1;exitX=0.5;exitY=0;exitDx=0;exitDy=0;fontFamily=Architects Daughter;fontSource=https%3A%2F%2Ffonts.googleapis.com%2Fcss%3Ffamily%3DArchitects%2BDaughter;fontSize=16;endArrow=classic;sourcePerimeterSpacing=8;targetPerimeterSpacing=8;endFill=1;startArrow=classic;startFill=1;" edge="1" parent="1">
          <mxGeometry relative="1" as="geometry">
            <mxPoint x="404.8" y="192" as="sourcePoint" />
            <mxPoint x="404.8" y="153" as="targetPoint" />
          </mxGeometry>
        </mxCell>
        <mxCell id="AHo4vM3Yk15O1mO4VEVY-19" style="edgeStyle=none;curved=1;rounded=0;orthogonalLoop=1;jettySize=auto;html=1;exitX=0.5;exitY=0;exitDx=0;exitDy=0;fontFamily=Architects Daughter;fontSource=https%3A%2F%2Ffonts.googleapis.com%2Fcss%3Ffamily%3DArchitects%2BDaughter;fontSize=16;endArrow=classic;sourcePerimeterSpacing=8;targetPerimeterSpacing=8;endFill=1;startArrow=classic;startFill=1;" edge="1" parent="1">
          <mxGeometry relative="1" as="geometry">
            <mxPoint x="191.71" y="106" as="sourcePoint" />
            <mxPoint x="191.71" y="67" as="targetPoint" />
          </mxGeometry>
        </mxCell>
        <mxCell id="AHo4vM3Yk15O1mO4VEVY-21" value="&lt;font style=&quot;font-size: 30px;&quot; face=&quot;Lucida Console&quot;&gt;RISC-V SoC&lt;/font&gt;" style="text;html=1;align=center;verticalAlign=middle;whiteSpace=wrap;rounded=0;fontSize=20;fontFamily=Architects Daughter;fontSource=https%3A%2F%2Ffonts.googleapis.com%2Fcss%3Ffamily%3DArchitects%2BDaughter;" vertex="1" parent="1">
          <mxGeometry x="94" y="-141" width="183" height="30" as="geometry" />
        </mxCell>
      </root>
    </mxGraphModel>
  </diagram>
</mxfile>
